<svg width="342" height="336" viewBox="0 0 342 336" fill="none" xmlns="http://www.w3.org/2000/svg">
<g filter="url(#filter0_iif_1480_953)">
<ellipse cx="170.5" cy="125" rx="79.5" ry="76" fill="url(#paint0_linear_1480_953)"/>
<path d="M170.5 201.758C214.793 201.758 250.758 167.424 250.758 125C250.758 82.5757 214.793 48.2417 170.5 48.2417C126.207 48.2417 90.2417 82.5757 90.2417 125C90.2417 167.424 126.207 201.758 170.5 201.758Z" stroke="url(#paint1_linear_1480_953)" stroke-opacity="0.6" stroke-width="1.51661"/>
</g>
<g filter="url(#filter1_ddii_1480_953)">
<ellipse cx="171" cy="125.5" rx="73" ry="70.5" fill="url(#paint2_linear_1480_953)"/>
</g>
<g filter="url(#filter2_i_1480_953)">
<ellipse cx="170" cy="127.5" rx="65" ry="62.5" fill="url(#paint3_linear_1480_953)"/>
</g>
<rect x="168" y="15" width="4" height="12" fill="black"/>
<rect x="139" y="19.0352" width="4" height="12" transform="rotate(-15 139 19.0352)" fill="black"/>
<rect x="113" y="31" width="4" height="12" transform="rotate(-30 113 31)" fill="black"/>
<rect x="113" y="31" width="4" height="12" transform="rotate(-30 113 31)" fill="black"/>
<rect x="113" y="31" width="4" height="12" transform="rotate(-30 113 31)" fill="black"/>
<rect x="168" y="15" width="4" height="12" fill="black"/>
<rect x="139" y="19.0352" width="4" height="12" transform="rotate(-15 139 19.0352)" fill="black"/>
<rect x="113" y="31" width="4" height="12" transform="rotate(-30 113 31)" fill="black"/>
<rect x="89.8906" y="48.8281" width="4" height="12" transform="rotate(-45 89.8906 48.8281)" fill="black"/>
<rect x="72.2383" y="72.188" width="4" height="12" transform="rotate(-60 72.2383 72.188)" fill="black"/>
<rect x="62.3135" y="99.0327" width="4" height="12" transform="rotate(-75 62.3135 99.0327)" fill="black"/>
<rect x="62.3135" y="99.0327" width="4" height="12" transform="rotate(-75 62.3135 99.0327)" fill="black"/>
<rect x="89.8906" y="48.8281" width="4" height="12" transform="rotate(-45 89.8906 48.8281)" fill="black"/>
<rect x="72.2383" y="72.188" width="4" height="12" transform="rotate(-60 72.2383 72.188)" fill="black"/>
<rect x="62.3135" y="99.0327" width="4" height="12" transform="rotate(-75 62.3135 99.0327)" fill="black"/>
<rect x="62.3135" y="99.0327" width="4" height="12" transform="rotate(-75 62.3135 99.0327)" fill="black"/>
<rect x="59" y="127" width="4" height="12" transform="rotate(-90 59 127)" fill="black"/>
<rect x="63.0352" y="156" width="4" height="12" transform="rotate(-105 63.0352 156)" fill="black"/>
<rect x="75" y="182" width="4" height="12" transform="rotate(-120 75 182)" fill="black"/>
<rect x="92.8281" y="205.109" width="4" height="12" transform="rotate(-135 92.8281 205.109)" fill="black"/>
<rect x="116.188" y="222.762" width="4" height="12" transform="rotate(-150 116.188 222.762)" fill="black"/>
<rect x="143.032" y="232.687" width="4" height="12" transform="rotate(-165 143.032 232.687)" fill="black"/>
<rect x="143.032" y="232.687" width="4" height="12" transform="rotate(-165 143.032 232.687)" fill="black"/>
<rect x="92.8281" y="205.109" width="4" height="12" transform="rotate(-135 92.8281 205.109)" fill="black"/>
<rect x="116.188" y="222.762" width="4" height="12" transform="rotate(-150 116.188 222.762)" fill="black"/>
<rect x="143.032" y="232.687" width="4" height="12" transform="rotate(-165 143.032 232.687)" fill="black"/>
<rect x="143.032" y="232.687" width="4" height="12" transform="rotate(-165 143.032 232.687)" fill="black"/>
<rect x="172" y="235" width="4" height="12" transform="rotate(-180 172 235)" fill="black"/>
<rect x="201" y="230.965" width="4" height="12" transform="rotate(165 201 230.965)" fill="black"/>
<rect x="227" y="219" width="4" height="12" transform="rotate(150 227 219)" fill="black"/>
<rect x="250.109" y="201.172" width="4" height="12" transform="rotate(135 250.109 201.172)" fill="black"/>
<rect x="267.762" y="177.812" width="4" height="12" transform="rotate(120 267.762 177.812)" fill="black"/>
<rect x="277.687" y="150.967" width="4" height="12" transform="rotate(105 277.687 150.967)" fill="black"/>
<rect x="277.687" y="150.967" width="4" height="12" transform="rotate(105 277.687 150.967)" fill="black"/>
<rect x="250.109" y="201.172" width="4" height="12" transform="rotate(135 250.109 201.172)" fill="black"/>
<rect x="267.762" y="177.812" width="4" height="12" transform="rotate(120 267.762 177.812)" fill="black"/>
<rect x="277.687" y="150.967" width="4" height="12" transform="rotate(105 277.687 150.967)" fill="black"/>
<rect x="277.687" y="150.967" width="4" height="12" transform="rotate(105 277.687 150.967)" fill="black"/>
<rect x="281" y="123" width="4" height="12" transform="rotate(90 281 123)" fill="black"/>
<rect x="276.965" y="94" width="4" height="12" transform="rotate(75 276.965 94)" fill="black"/>
<rect x="265" y="68" width="4" height="12" transform="rotate(60 265 68)" fill="black"/>
<rect x="247.172" y="44.8911" width="4" height="12" transform="rotate(45 247.172 44.8911)" fill="black"/>
<rect x="223.812" y="27.2383" width="4" height="12" transform="rotate(30 223.812 27.2383)" fill="black"/>
<rect x="196.968" y="17.3135" width="4" height="12" transform="rotate(15 196.968 17.3135)" fill="black"/>
<rect x="196.968" y="17.3135" width="4" height="12" transform="rotate(15 196.968 17.3135)" fill="black"/>
<rect x="247.172" y="44.8911" width="4" height="12" transform="rotate(45 247.172 44.8911)" fill="black"/>
<rect x="223.812" y="27.2383" width="4" height="12" transform="rotate(30 223.812 27.2383)" fill="black"/>
<rect x="196.968" y="17.3135" width="4" height="12" transform="rotate(15 196.968 17.3135)" fill="black"/>
<rect x="196.968" y="17.3135" width="4" height="12" transform="rotate(15 196.968 17.3135)" fill="black"/>
<defs>
<filter id="filter0_iif_1480_953" x="86.4502" y="44.4502" width="168.1" height="161.1" filterUnits="userSpaceOnUse" color-interpolation-filters="sRGB">
<feFlood flood-opacity="0" result="BackgroundImageFix"/>
<feBlend mode="normal" in="SourceGraphic" in2="BackgroundImageFix" result="shape"/>
<feColorMatrix in="SourceAlpha" type="matrix" values="0 0 0 0 0 0 0 0 0 0 0 0 0 0 0 0 0 0 127 0" result="hardAlpha"/>
<feMorphology radius="1.51661" operator="erode" in="SourceAlpha" result="effect1_innerShadow_1480_953"/>
<feOffset dy="3.03322"/>
<feGaussianBlur stdDeviation="1.51661"/>
<feComposite in2="hardAlpha" operator="arithmetic" k2="-1" k3="1"/>
<feColorMatrix type="matrix" values="0 0 0 0 0 0 0 0 0 0 0 0 0 0 0 0 0 0 0.6 0"/>
<feBlend mode="normal" in2="shape" result="effect1_innerShadow_1480_953"/>
<feColorMatrix in="SourceAlpha" type="matrix" values="0 0 0 0 0 0 0 0 0 0 0 0 0 0 0 0 0 0 127 0" result="hardAlpha"/>
<feOffset dy="3.03322"/>
<feGaussianBlur stdDeviation="0.758305"/>
<feComposite in2="hardAlpha" operator="arithmetic" k2="-1" k3="1"/>
<feColorMatrix type="matrix" values="0 0 0 0 0.929167 0 0 0 0 0.937667 0 0 0 0 1 0 0 0 0.57 0"/>
<feBlend mode="normal" in2="effect1_innerShadow_1480_953" result="effect2_innerShadow_1480_953"/>
<feGaussianBlur stdDeviation="1.51661" result="effect3_foregroundBlur_1480_953"/>
</filter>
<filter id="filter1_ddii_1480_953" x="0.936996" y="0.402061" width="340.126" height="335.126" filterUnits="userSpaceOnUse" color-interpolation-filters="sRGB">
<feFlood flood-opacity="0" result="BackgroundImageFix"/>
<feColorMatrix in="SourceAlpha" type="matrix" values="0 0 0 0 0 0 0 0 0 0 0 0 0 0 0 0 0 0 127 0" result="hardAlpha"/>
<feOffset dy="42.4651"/>
<feGaussianBlur stdDeviation="48.5315"/>
<feComposite in2="hardAlpha" operator="out"/>
<feColorMatrix type="matrix" values="0 0 0 0 0 0 0 0 0 0 0 0 0 0 0 0 0 0 0.4 0"/>
<feBlend mode="normal" in2="BackgroundImageFix" result="effect1_dropShadow_1480_953"/>
<feColorMatrix in="SourceAlpha" type="matrix" values="0 0 0 0 0 0 0 0 0 0 0 0 0 0 0 0 0 0 127 0" result="hardAlpha"/>
<feOffset dy="6.06644"/>
<feGaussianBlur stdDeviation="3.03322"/>
<feComposite in2="hardAlpha" operator="out"/>
<feColorMatrix type="matrix" values="0 0 0 0 0 0 0 0 0 0 0 0 0 0 0 0 0 0 0.25 0"/>
<feBlend mode="normal" in2="effect1_dropShadow_1480_953" result="effect2_dropShadow_1480_953"/>
<feBlend mode="normal" in="SourceGraphic" in2="effect2_dropShadow_1480_953" result="shape"/>
<feColorMatrix in="SourceAlpha" type="matrix" values="0 0 0 0 0 0 0 0 0 0 0 0 0 0 0 0 0 0 127 0" result="hardAlpha"/>
<feOffset dy="3.03322"/>
<feGaussianBlur stdDeviation="0.758305"/>
<feComposite in2="hardAlpha" operator="arithmetic" k2="-1" k3="1"/>
<feColorMatrix type="matrix" values="0 0 0 0 0.929167 0 0 0 0 0.937667 0 0 0 0 1 0 0 0 0.37 0"/>
<feBlend mode="normal" in2="shape" result="effect3_innerShadow_1480_953"/>
<feColorMatrix in="SourceAlpha" type="matrix" values="0 0 0 0 0 0 0 0 0 0 0 0 0 0 0 0 0 0 127 0" result="hardAlpha"/>
<feOffset dy="-1.51661"/>
<feGaussianBlur stdDeviation="1.51661"/>
<feComposite in2="hardAlpha" operator="arithmetic" k2="-1" k3="1"/>
<feColorMatrix type="matrix" values="0 0 0 0 1 0 0 0 0 1 0 0 0 0 1 0 0 0 0.2 0"/>
<feBlend mode="normal" in2="effect3_innerShadow_1480_953" result="effect4_innerShadow_1480_953"/>
</filter>
<filter id="filter2_i_1480_953" x="105" y="63.4834" width="130" height="126.517" filterUnits="userSpaceOnUse" color-interpolation-filters="sRGB">
<feFlood flood-opacity="0" result="BackgroundImageFix"/>
<feBlend mode="normal" in="SourceGraphic" in2="BackgroundImageFix" result="shape"/>
<feColorMatrix in="SourceAlpha" type="matrix" values="0 0 0 0 0 0 0 0 0 0 0 0 0 0 0 0 0 0 127 0" result="hardAlpha"/>
<feOffset dy="-1.51661"/>
<feGaussianBlur stdDeviation="0.758305"/>
<feComposite in2="hardAlpha" operator="arithmetic" k2="-1" k3="1"/>
<feColorMatrix type="matrix" values="0 0 0 0 0.929167 0 0 0 0 0.937667 0 0 0 0 1 0 0 0 0.17 0"/>
<feBlend mode="normal" in2="shape" result="effect1_innerShadow_1480_953"/>
</filter>
<linearGradient id="paint0_linear_1480_953" x1="170.5" y1="49" x2="170.5" y2="201" gradientUnits="userSpaceOnUse">
<stop stop-color="#424242"/>
<stop offset="1" stop-color="#232323"/>
</linearGradient>
<linearGradient id="paint1_linear_1480_953" x1="170.5" y1="49" x2="170.5" y2="201" gradientUnits="userSpaceOnUse">
<stop stop-color="white"/>
<stop offset="1" stop-color="#666666"/>
</linearGradient>
<linearGradient id="paint2_linear_1480_953" x1="171" y1="55" x2="171" y2="196" gradientUnits="userSpaceOnUse">
<stop stop-color="#606060"/>
<stop offset="1" stop-color="#2B2B2B"/>
</linearGradient>
<linearGradient id="paint3_linear_1480_953" x1="170" y1="65" x2="170" y2="190" gradientUnits="userSpaceOnUse">
<stop stop-color="#323232"/>
<stop offset="0.226722" stop-color="#393939"/>
<stop offset="1" stop-color="#6A6A6A"/>
</linearGradient>
</defs>
</svg>
