<svg width="299" height="49" xmlns="http://www.w3.org/2000/svg" xmlns:xlink="http://www.w3.org/1999/xlink" xml:space="preserve" overflow="hidden"><g transform="translate(-628 -24)"><path d="M641.749 33.163C641.749 34.2923 640.833 35.2078 639.704 35.2078 638.575 35.2078 637.659 34.2923 637.659 33.163 637.659 32.0337 638.575 31.1182 639.704 31.1182 640.833 31.1182 641.749 32.0337 641.749 33.163Z" fill="#64D7D6"/><path d="M654.616 33.163C654.616 34.2923 653.7 35.2078 652.571 35.2078 651.442 35.2078 650.526 34.2923 650.526 33.163 650.526 32.0337 651.442 31.1182 652.571 31.1182 653.7 31.1182 654.616 32.0337 654.616 33.163Z" fill="#64D7D6"/><path d="M628.347 24 628.347 43.2202 643.976 43.2202 643.976 44.8568 628.347 44.8578 628.347 73 637.434 73 644.35 66.0841 640.375 62.1102 644.35 58.1359 643.188 56.9745 638.053 62.1102 640.306 64.3638 635.759 68.9109 632.437 68.9109 632.437 48.9469 659.838 48.9469 659.838 68.9105 656.517 68.9105 651.97 64.3633 654.223 62.1098 649.086 56.9741 647.925 58.1354 651.9 62.1098 647.925 66.0836 654.841 73 663.928 73 663.928 44.8578 648.299 44.8573 648.299 43.2207 663.928 43.2207 663.928 24 628.347 24ZM659.838 39.1307 632.437 39.1307 632.437 27.7975 659.838 27.7975 659.838 39.1307Z" fill="#64D7D6"/><path d="M642.796 62.1094 646.137 58.769 649.477 62.1097 646.137 65.4501Z" fill="#64D7D6"/><path d="M687.995 59.4757 679.962 59.4757 679.962 37.9466 687.7 37.9466C691.598 37.8875 694.64 39.8957 694.64 43.351 694.64 43.8531 694.61 44.2961 694.345 45.123 694.227 45.5364 694.049 45.8908 693.813 46.2452 693.37 46.954 692.484 47.7809 691.362 48.2829 692.868 48.6669 694.079 49.5824 694.699 50.616 695.319 51.6496 695.585 52.6833 695.585 53.5692 695.585 55.5774 694.729 57.1427 693.311 58.0877 691.893 59.0032 690.062 59.4757 687.995 59.4757ZM687.523 40.0138 682.207 40.0138 682.207 47.5151 687.346 47.5151C689.029 47.5151 690.269 47.1607 691.096 46.4224 691.923 45.6841 692.336 44.7686 692.336 43.6168 692.336 40.9884 689.974 40.0138 687.523 40.0138ZM687.611 49.5233 682.207 49.5233 682.207 57.4085 688.054 57.4085C690.387 57.4085 693.282 56.4634 693.282 53.4216 693.282 51.561 692.13 50.5274 690.683 50.0253 689.679 49.6414 688.704 49.5233 687.611 49.5233ZM700.815 59.4757 700.815 37.9466 703.089 37.9466 703.089 57.3494 713.307 57.3494 713.307 59.4757 700.815 59.4757ZM733.422 59.4757 731.059 53.9827 719.335 53.9827 716.972 59.4757 714.669 59.4757 723.942 37.9466 726.511 37.9466 735.814 59.4757 733.422 59.4757ZM730.203 51.9154 725.182 40.2796 720.192 51.9154 730.203 51.9154ZM753.241 37.9466 755.515 37.9466 755.515 51.059C755.515 53.776 754.777 55.9023 753.389 57.4085 751.971 58.9146 749.963 59.6825 747.394 59.6825 744.854 59.6825 742.846 58.9146 741.458 57.3789 740.04 55.8432 739.331 53.8055 739.331 51.2066L739.331 37.9466 741.576 37.9466 741.576 51.0885C741.576 53.3625 742.226 55.1049 743.289 56.0795 744.382 57.0836 745.77 57.5561 747.512 57.5561 749.343 57.5561 750.761 57.0245 751.765 55.9023 752.739 54.7801 753.241 53.2444 753.241 51.2066L753.241 37.9466ZM786.058 59.4757 783.311 59.4757 776.932 50.7637 772.561 50.7637 772.561 59.4757 770.287 59.4757 770.287 37.9466 777.759 37.9466C780.299 37.9466 782.337 38.6553 783.518 39.8366 784.699 41.0179 785.319 42.4946 785.319 44.237 785.319 47.8695 782.602 49.9663 779.413 50.3797ZM772.561 40.0729 772.561 48.6964 777.552 48.6964C779.443 48.6964 780.919 48.1648 781.776 47.3084 782.602 46.4815 783.016 45.4478 783.016 44.2961 783.016 42.1697 781.716 40.0729 777.611 40.0729L772.561 40.0729ZM810.927 48.6669C810.927 50.7046 810.455 52.5651 809.539 54.2485 808.594 55.9318 807.295 57.2608 805.641 58.2354 803.957 59.2099 802.126 59.712 800.059 59.712 798.553 59.712 797.135 59.4167 795.777 58.8556 794.448 58.2944 793.296 57.5266 792.351 56.5225 791.406 55.5774 790.668 54.4257 790.107 53.0672 789.575 51.7087 789.28 50.2911 789.28 48.785 789.28 46.7472 789.752 44.8867 790.697 43.2033 791.613 41.52 792.912 40.1615 794.596 39.1869 796.249 38.2124 798.11 37.7398 800.148 37.7398 801.654 37.7398 803.071 38.0056 804.43 38.5667 805.759 39.1574 806.911 39.9252 807.856 40.8703 808.801 41.8744 809.569 43.0262 810.1 44.3551 810.661 45.7136 810.927 47.1312 810.927 48.6669ZM808.594 48.785C808.594 46.3633 807.708 44.1189 806.231 42.4946 804.755 40.8703 802.54 39.8366 800.059 39.8366 798.464 39.8366 797.017 40.2501 795.718 41.0179 794.418 41.8449 793.414 42.908 792.706 44.237 791.997 45.5955 791.642 47.0721 791.642 48.6669 791.642 51.059 792.528 53.333 794.005 54.9277 795.482 56.552 797.696 57.5857 800.148 57.5857 801.742 57.5857 803.19 57.1722 804.489 56.3748 805.818 55.607 806.822 54.5143 807.531 53.1853 808.24 51.8564 808.594 50.3797 808.594 48.785ZM824.131 59.4757 816.098 59.4757 816.098 37.9466 823.836 37.9466C827.734 37.8875 830.776 39.8957 830.776 43.351 830.776 43.8531 830.746 44.2961 830.48 45.123 830.362 45.5364 830.185 45.8908 829.949 46.2452 829.506 46.954 828.62 47.7809 827.498 48.2829 829.004 48.6669 830.215 49.5824 830.835 50.616 831.455 51.6496 831.721 52.6833 831.721 53.5692 831.721 55.5774 830.864 57.1427 829.447 58.0877 828.029 59.0032 826.198 59.4757 824.131 59.4757ZM823.658 40.0138 818.343 40.0138 818.343 47.5151 823.481 47.5151C825.165 47.5151 826.405 47.1607 827.232 46.4224 828.059 45.6841 828.472 44.7686 828.472 43.6168 828.472 40.9884 826.11 40.0138 823.658 40.0138ZM823.747 49.5233 818.343 49.5233 818.343 57.4085 824.19 57.4085C826.523 57.4085 829.417 56.4634 829.417 53.4216 829.417 51.561 828.266 50.5274 826.818 50.0253 825.814 49.6414 824.84 49.5233 823.747 49.5233ZM857.092 48.6669C857.092 50.7046 856.62 52.5651 855.704 54.2485 854.759 55.9318 853.46 57.2608 851.806 58.2354 850.122 59.2099 848.292 59.712 846.224 59.712 844.718 59.712 843.301 59.4167 841.942 58.8556 840.613 58.2944 839.461 57.5266 838.516 56.5225 837.571 55.5774 836.833 54.4257 836.272 53.0672 835.74 51.7087 835.445 50.2911 835.445 48.785 835.445 46.7472 835.917 44.8867 836.862 43.2033 837.778 41.52 839.077 40.1615 840.761 39.1869 842.415 38.2124 844.275 37.7398 846.313 37.7398 847.819 37.7398 849.237 38.0056 850.595 38.5667 851.924 39.1574 853.076 39.9252 854.021 40.8703 854.966 41.8744 855.734 43.0262 856.265 44.3551 856.826 45.7136 857.092 47.1312 857.092 48.6669ZM854.759 48.785C854.759 46.3633 853.873 44.1189 852.396 42.4946 850.92 40.8703 848.705 39.8366 846.224 39.8366 844.63 39.8366 843.182 40.2501 841.883 41.0179 840.583 41.8449 839.579 42.908 838.871 44.237 838.162 45.5955 837.807 47.0721 837.807 48.6669 837.807 51.059 838.693 53.333 840.17 54.9277 841.647 56.552 843.862 57.5857 846.313 57.5857 847.908 57.5857 849.355 57.1722 850.654 56.3748 851.983 55.607 852.987 54.5143 853.696 53.1853 854.405 51.8564 854.759 50.3797 854.759 48.785ZM869.322 40.0729 869.322 59.4757 867.077 59.4757 867.077 40.0729 859.871 40.0729 859.871 37.9466 876.527 37.9466 876.527 40.0729 869.322 40.0729ZM880.813 59.4757 880.813 37.9466 883.087 37.9466 883.087 59.4757 880.813 59.4757ZM899.008 59.712C896.054 59.712 893.308 58.5602 891.388 56.6702 890.443 55.7251 889.675 54.5733 889.114 53.2149 888.553 51.8268 888.258 50.3502 888.258 48.785 888.258 47.1902 888.553 45.6841 889.144 44.2961 889.734 42.908 890.502 41.7267 891.477 40.7817 893.456 38.8621 896.202 37.7103 899.096 37.7103 901.37 37.7103 903.437 38.3896 904.826 39.3641 905.534 39.8366 906.154 40.3978 906.716 41.0179 907.808 42.2878 908.399 43.5577 908.724 44.7981L906.568 45.5659C906.391 44.8572 906.095 44.0893 905.298 42.9671 904.885 42.406 904.442 41.9039 903.91 41.4609 903.378 41.0179 902.699 40.634 901.843 40.3387 900.986 40.0138 900.071 39.8662 899.037 39.8662 896.793 39.8662 894.637 40.7817 893.131 42.2878 891.595 43.8235 890.62 46.0975 890.62 48.6373 890.62 50.3207 890.975 51.8564 891.713 53.2149 892.422 54.5733 893.426 55.6365 894.755 56.4044 896.025 57.1722 897.472 57.5561 899.067 57.5561 901.045 57.5561 902.758 56.8769 903.792 56.05 904.323 55.6365 904.796 55.164 905.209 54.5733 905.623 54.0122 905.918 53.5102 906.125 53.0967 906.302 52.6833 906.479 52.2403 906.627 51.7973L908.783 52.5651C908.458 53.7169 907.897 54.8982 906.804 56.2272 906.273 56.8769 905.623 57.4675 904.944 57.9696 903.526 58.9737 901.37 59.712 899.008 59.712ZM919.506 59.6825C917.468 59.6825 915.519 58.9146 914.249 57.7924 912.92 56.6406 912.064 55.1049 911.887 53.5988L914.013 53.0081C914.249 54.278 914.899 55.3412 915.962 56.2272 916.996 57.1131 918.177 57.5561 919.506 57.5561 920.746 57.5561 921.898 57.2608 922.814 56.6111 923.729 55.9909 924.32 54.9277 924.32 53.6283 924.32 52.1222 923.522 51.1476 922.518 50.5569 921.81 50.1435 921.189 49.9663 920.481 49.8186L917.646 49.2575C917.055 49.1394 916.435 48.9326 915.755 48.6373 915.076 48.3125 914.486 47.9285 913.984 47.4265 912.979 46.4519 912.477 45.2116 912.477 43.7054 912.477 42.5241 912.802 41.4609 913.452 40.5454 914.102 39.6004 914.929 38.9211 915.962 38.4191 916.996 37.9466 918.089 37.7103 919.299 37.7103 923.936 37.7103 925.974 40.575 926.417 42.8785L924.349 43.5282C923.995 41.9925 922.607 39.8071 919.27 39.8071 916.966 39.7481 914.722 41.3723 914.751 43.6168 914.751 45.2706 915.785 46.5996 917.882 47.013L920.599 47.5446C922.43 47.899 923.847 48.5192 924.792 49.4347 925.442 50.0253 925.915 50.7046 926.21 51.4134 926.505 52.1517 926.653 52.8014 926.653 53.392 926.682 57.1722 923.493 59.7711 919.506 59.6825Z" fill="#3276A0"/></g></svg>