<svg xmlns="http://www.w3.org/2000/svg" width="700" height="145" viewBox="0 0 700 145" version="1.1"><path d="M 437 123.706 C 434.226 124.720, 431.066 128.269, 429.964 131.609 C 427.821 138.102, 433.531 145, 441.050 145 C 445.811 145, 451 139.432, 451 134.323 C 451 126.845, 443.653 121.274, 437 123.706" stroke="none" fill="#e5271e" fill-rule="evenodd"/><path d="M 555.456 1.071 C 554.996 1.815, 556.881 1.940, 561.647 1.480 C 569.710 0.702, 594.893 2.336, 608.443 4.516 C 655.466 12.083, 687.200 32.827, 687.200 56 C 687.200 80.570, 652.725 101.613, 601 108.616 C 584.066 110.908, 553.707 110.873, 537.182 108.541 C 524.569 106.761, 519.893 106.953, 528.887 108.882 C 546.859 112.737, 575.394 114.543, 595 113.067 C 637.100 109.898, 669.038 99.121, 687.492 81.859 C 696.363 73.561, 700 66.186, 700 56.500 C 700 50.502, 699.500 48.318, 696.961 43.238 C 687.100 23.505, 653.120 7.012, 611.158 1.594 C 596.611 -0.285, 556.527 -0.661, 555.456 1.071" stroke="none" fill="#0494d4" fill-rule="evenodd"/><path d="M 556.500 5.639 C 517.235 7.784, 483.574 19.447, 468.502 36.129 C 457.293 48.537, 457.300 62.774, 468.523 75.787 C 472.712 80.646, 480.673 86.314, 489.500 90.724 C 511.985 101.956, 549.097 107.673, 582.851 105.104 C 606.696 103.289, 607.105 102.239, 583.750 102.794 C 572.337 103.065, 563 102.910, 563 102.450 C 563 101.990, 571.873 92.701, 582.717 81.807 L 602.434 62 623.246 62 L 644.057 62 650.279 58.844 L 656.500 55.689 650.500 52.847 C 644.501 50.007, 644.496 50.006, 623.491 50.003 L 602.482 50 581.991 29.396 L 561.500 8.792 581.500 9.370 C 595.132 9.763, 604.684 10.568, 611.500 11.899 C 617 12.973, 623.075 14.118, 625 14.445 L 628.500 15.038 624.500 13.475 C 611.417 8.363, 577.719 4.480, 556.500 5.639 M 546.182 10.607 C 540.507 11.378, 532.740 12.795, 528.923 13.756 L 521.982 15.503 539.991 33.491 L 558 51.479 558 30.240 C 558 18.558, 557.663 9.046, 557.250 9.103 C 556.837 9.159, 551.857 9.836, 546.182 10.607 M 106.891 44.250 C 97.397 61.988, 86.820 81.675, 83.388 88 C 77.478 98.891, 77.256 99.541, 79.201 100.265 C 82.174 101.372, 88.291 100.530, 89.129 98.898 C 89.524 98.129, 92.883 91.088, 96.594 83.250 L 103.341 69 122.492 69 L 141.644 69 149.399 84.919 L 157.154 100.838 166.827 100.561 C 174.295 100.347, 176.428 99.979, 176.184 98.945 C 176.011 98.209, 165.925 78.345, 153.771 54.803 L 131.673 12 127.914 12 L 124.154 12 106.891 44.250 M 264.660 14.193 C 262.815 17.108, 219 98.864, 219 99.392 C 219 99.607, 220.152 100.072, 221.560 100.426 C 224.898 101.263, 231 100.100, 231 98.626 C 231 97.993, 234.129 91.068, 237.953 83.238 L 244.906 69 263.971 69 L 283.036 69 290.844 84.750 L 298.653 100.500 308.004 100.468 C 313.147 100.450, 317.479 100, 317.630 99.468 C 317.781 98.935, 307.914 79.150, 295.703 55.500 L 273.500 12.500 269.810 12.193 C 266.854 11.947, 265.830 12.345, 264.660 14.193 M 0 57.143 L 0 100.500 5.250 100.458 C 8.138 100.435, 12.412 100.322, 14.750 100.208 L 19 100 19 79.965 C 19 60.619, 19.065 59.965, 20.892 60.942 C 22.535 61.822, 48.367 89.261, 55.218 97.403 C 57.528 100.149, 58.118 100.317, 66.080 100.492 C 70.711 100.594, 74.844 100.494, 75.265 100.270 C 75.686 100.046, 67.272 90.781, 56.566 79.681 C 45.860 68.582, 37.059 59.088, 37.008 58.584 C 36.957 58.080, 40.034 56.875, 43.846 55.907 C 57.258 52.501, 64.856 47.005, 66.935 39.205 C 68.769 32.321, 66.113 25.543, 59.784 20.959 C 52.382 15.597, 47.760 14.759, 22.750 14.250 L -0 13.786 0 57.143 M 180 56.897 L 180 99.824 183.750 100.414 C 185.813 100.739, 189.975 100.815, 193 100.583 L 198.500 100.161 198.771 80.080 L 199.041 60 216.521 60 L 234 60 234 55.500 L 234 51 216.500 51 L 199 51 199 37.022 L 199 23.043 218.250 22.772 L 237.500 22.500 237.500 18.500 L 237.500 14.500 208.750 14.235 L 180 13.969 180 56.897 M 322 57 L 322 100 351.557 100 L 381.115 100 380.807 95.750 L 380.500 91.500 360.750 91.229 L 341 90.958 341 75.502 L 341 60.046 358.750 59.773 L 376.500 59.500 376.500 55.500 L 376.500 51.500 358.750 51.227 L 341 50.954 341 36.977 L 341 23 360.500 23 L 380 23 380 18.500 L 380 14 351 14 L 322 14 322 57 M 390.667 14.667 C 390.300 15.033, 390 34.383, 390 57.667 L 390 100 420.500 100 L 451 100 451 95.500 L 451 91 430 91 L 409 91 409 52.500 L 409 14 400.167 14 C 395.308 14, 391.033 14.300, 390.667 14.667 M 21.750 19.679 L 19 20.133 19 36.566 L 19 53 24.818 53 C 31.998 53, 40.440 50.608, 44.751 47.352 C 54.036 40.339, 52.925 26.460, 42.723 22.030 C 38.428 20.164, 26.743 18.855, 21.750 19.679 M 499.711 23.894 C 476.116 35.748, 467.211 51.608, 475.248 67.462 C 479.283 75.420, 492.937 86.137, 504.826 90.678 L 509.159 92.333 524.826 76.666 L 540.492 61 525.746 61 L 511 61 511 55.500 L 511 50 525.737 50 L 540.475 50 525.500 35 C 517.264 26.750, 509.836 20, 508.994 20 C 508.151 20, 503.974 21.752, 499.711 23.894 M 114.784 45.239 C 110.778 53.071, 107.350 59.821, 107.167 60.239 C 106.983 60.658, 113.846 61, 122.417 61 C 130.988 61, 138 60.773, 138 60.495 C 138 59.696, 122.868 31, 122.447 31 C 122.239 31, 118.791 37.408, 114.784 45.239 M 256.234 45.509 C 252.255 53.489, 249 60.239, 249 60.509 C 249 61.320, 278.996 61.062, 279.047 60.250 C 279.114 59.188, 264.610 31.042, 263.984 31.019 C 263.700 31.009, 260.213 37.529, 256.234 45.509 M 539.547 77.952 C 529.673 87.838, 521.861 96.194, 522.188 96.521 C 523.552 97.885, 556.788 103.546, 557.755 102.579 C 557.912 102.421, 557.919 92.772, 557.770 81.135 L 557.500 59.977 539.547 77.952 M 2.189 125.039 C -0.880 127.898, -0.680 132.320, 2.635 134.927 C 4.084 136.067, 5.829 137, 6.512 137 C 7.196 137, 8.356 137.724, 9.090 138.608 C 10.220 139.970, 10.155 140.414, 8.666 141.502 C 6.636 142.987, 3.071 142.350, 2.311 140.367 C 1.529 138.329, -0 139.780, -0 142.559 C -0 144.851, 0.335 145, 5.500 145 C 12.283 145, 15.288 142.640, 14.809 137.691 C 14.551 135.027, 13.716 134.087, 9.753 132 C 7.142 130.625, 5.004 128.923, 5.003 128.219 C 4.999 126.301, 8.004 125.521, 10.173 126.876 C 12.285 128.195, 14 127.600, 14 125.548 C 14 122.410, 5.408 122.040, 2.189 125.039 M 19.520 124.250 C 18.951 125.953, 16 142.368, 16 143.828 C 16 144.473, 16.856 145, 17.902 145 C 19.488 145, 19.923 143.975, 20.521 138.819 L 21.238 132.637 24.710 138.819 C 26.620 142.218, 28.723 145, 29.383 145 C 30.043 145, 31.824 142.471, 33.339 139.381 C 34.855 136.290, 36.393 134.059, 36.756 134.423 C 37.120 134.787, 37.661 137.203, 37.959 139.792 C 38.470 144.241, 38.679 144.517, 41.750 144.813 C 43.538 144.986, 44.986 144.761, 44.968 144.313 C 44.855 141.398, 42.022 123.689, 41.602 123.269 C 40.291 121.957, 37.868 124.412, 34.463 130.500 L 30.756 137.128 28.928 134.122 C 27.922 132.468, 26.168 129.289, 25.029 127.057 C 23.009 123.097, 20.356 121.745, 19.520 124.250 M 55.371 124.208 C 53.660 126.977, 46 143.210, 46 144.068 C 46 144.581, 46.856 145, 47.902 145 C 49.117 145, 50.182 143.915, 50.850 142 C 51.767 139.370, 52.369 139, 55.729 139 C 59.069 139, 59.707 139.385, 60.694 142 C 61.615 144.441, 62.402 145, 64.913 145 C 66.611 145, 68.005 144.662, 68.012 144.250 C 68.018 143.838, 65.919 138.887, 63.348 133.250 C 58.918 123.537, 57.076 121.449, 55.371 124.208 M 70 134 L 70 145 73.512 145 L 77.024 145 76.467 140.750 L 75.910 136.500 77.705 138.946 C 82.009 144.811, 82.500 145.165, 85.856 144.830 L 89.164 144.500 86.082 140.259 C 82.446 135.254, 82.386 134.865, 85 133.232 C 86.131 132.526, 87 130.900, 87 129.492 C 87 127.390, 87.469 127, 90 127 L 93 127 93 136 L 93 145 96.500 145 L 100 145 100 136 L 100 127 103.073 127 C 105.461 127, 106.072 126.610, 105.812 125.250 C 105.527 123.760, 104.107 123.457, 96.239 123.212 C 88.624 122.975, 87 123.185, 87 124.403 C 87 125.697, 86.657 125.702, 84.250 124.447 C 82.737 123.658, 78.912 123.010, 75.750 123.006 L 70 123 70 134 M 119.423 133.172 C 116.715 138.767, 114.350 143.717, 114.167 144.172 C 113.983 144.627, 114.960 145, 116.337 145 C 118.306 145, 118.982 144.359, 119.500 142 C 120.097 139.281, 120.531 139, 124.131 139 C 127.646 139, 128.225 139.346, 129.150 142 C 130.035 144.541, 130.717 145, 133.598 145 C 135.469 145, 137 144.822, 137 144.604 C 137 142.589, 126.773 123, 125.721 123 C 124.965 123, 122.130 127.577, 119.423 133.172 M 139 132.418 C 139 137.598, 138.727 142.548, 138.393 143.418 C 137.937 144.608, 138.423 145, 140.355 145 C 142.913 145, 142.922 144.971, 142.318 138.500 C 141.968 134.754, 142.102 132, 142.634 132 C 143.142 132, 146.457 134.925, 150 138.500 C 158.947 147.527, 159.554 147.322, 160.404 134.981 C 161.120 124.580, 160.862 123, 158.441 123 C 157.334 123, 157 124.507, 157 129.500 C 157 133.075, 156.650 136, 156.221 136 C 155.793 136, 152.543 133.075, 149 129.500 C 139.932 120.350, 139 120.622, 139 132.418 M 162.955 123.122 C 162.931 123.330, 162.818 128.338, 162.705 134.251 L 162.500 145.001 169.882 145.001 C 179.109 145, 183.392 142.763, 185.104 137.049 C 187.683 128.438, 183.079 123.905, 171.043 123.209 C 166.620 122.953, 162.980 122.913, 162.955 123.122 M 196 124.962 C 196 126.560, 196.648 127, 199 127 L 202 127 202 136 L 202 145 205.500 145 L 209 145 209 136 L 209 127 212.073 127 C 214.461 127, 215.072 126.610, 214.812 125.250 C 214.527 123.760, 213.107 123.457, 205.239 123.212 C 196.516 122.941, 196 123.039, 196 124.962 M 220.378 124.437 C 218.661 125.184, 216.524 126.842, 215.628 128.120 C 213.795 130.738, 213.473 137.147, 215.030 140.055 C 216.621 143.030, 221.391 145, 227 145 C 235.669 145, 241 140.812, 241 134 C 241 132.045, 240.266 129.397, 239.369 128.117 C 236.073 123.411, 226.845 121.623, 220.378 124.437 M 251.667 123.667 C 250.007 125.326, 251.179 127, 254 127 L 257 127 257 136 L 257 145 260.500 145 L 264 145 264 136 L 264 127 267 127 C 269.333 127, 270 126.556, 270 125 C 270 123.151, 269.333 123, 261.167 123 C 256.308 123, 252.033 123.300, 251.667 123.667 M 271.946 123.250 C 271.916 123.388, 271.804 128.338, 271.696 134.250 L 271.500 145.001 274.750 145 C 277.983 145, 278 144.974, 278 140 L 278 135 282.500 135 L 287 135 287 140 L 287 145 290.534 145 L 294.068 145 293.784 134.250 L 293.500 123.500 290.500 123.500 C 287.685 123.500, 287.481 123.763, 287.193 127.750 L 286.885 132 282.443 132 L 278 132 278 127.500 C 278 123.167, 277.889 123, 275 123 C 273.350 123, 271.976 123.112, 271.946 123.250 M 296 134 L 296 145 303.073 145 C 309.264 145, 310.105 144.782, 309.811 143.255 C 309.548 141.892, 308.655 141.580, 305.737 141.831 C 302.044 142.149, 302 142.110, 302 138.498 C 302 134.887, 302.045 134.848, 305.725 135.172 C 308.634 135.428, 309.526 135.117, 309.798 133.750 C 310.084 132.313, 309.419 132, 306.073 132 C 302.395 132, 302 131.758, 302 129.500 C 302 127.250, 302.400 127, 306 127 C 309.333 127, 310 126.667, 310 125 C 310 123.190, 309.333 123, 303 123 L 296 123 296 134 M 323.667 123.667 C 323.300 124.033, 323 128.983, 323 134.667 L 323 145 326.500 145 C 329.966 145, 330 144.958, 330 140.628 C 330 136.309, 330.048 136.248, 333.953 135.624 C 336.127 135.276, 338.311 134.267, 338.807 133.381 C 339.498 132.145, 339.857 132.707, 340.351 135.794 C 341.364 142.127, 345.496 145, 353.591 145 C 359.520 145, 360.323 144.731, 363.742 141.598 C 366.869 138.732, 367.455 137.548, 367.455 134.094 C 367.455 122.881, 350.399 118.796, 342.546 128.128 L 340.132 130.996 339.816 128.271 C 339.618 126.564, 338.567 125.076, 337 124.288 C 334.376 122.967, 324.812 122.522, 323.667 123.667 M 369 133.937 L 369 145 372.534 145 L 376.068 145 375.784 134.250 L 375.500 123.500 372.250 123.187 L 369 122.873 369 133.937 M 378 130.875 C 378 135.206, 377.719 140.156, 377.375 141.875 C 376.832 144.591, 377.028 145, 378.875 145 C 380.846 145, 381 144.475, 381 137.775 L 381 130.550 388.274 137.775 C 392.274 141.749, 396.324 145, 397.274 145 C 399.048 145, 399 145.410, 399.438 126.264 C 399.480 124.421, 398.928 123.417, 397.750 123.190 C 396.212 122.894, 396 123.739, 396 130.152 L 396 137.450 388.726 130.225 C 379.074 120.637, 378 120.702, 378 130.875 M 401.667 123.667 C 399.859 125.474, 401.212 127, 404.622 127 L 408.245 127 407.814 136 L 407.384 145 410.692 145 L 414 145 414 136 L 414 127 417 127 C 419.333 127, 420 126.556, 420 125 C 420 123.151, 419.333 123, 411.167 123 C 406.308 123, 402.033 123.300, 401.667 123.667 M 76 129.427 C 76 133.315, 77.774 134.182, 80.070 131.416 C 81.611 129.559, 80.285 126.697, 77.643 126.177 C 76.365 125.925, 76 126.648, 76 129.427 M 169 133.869 L 169 142 172 142 C 176.202 142, 179 138.878, 179 134.191 C 179 129.193, 177.323 127.089, 172.747 126.346 L 169 125.738 169 133.869 M 222.488 128.013 C 220.129 130.619, 220.005 138.433, 222.286 140.714 C 224.702 143.131, 229.949 142.781, 232.156 140.056 C 234.631 136.999, 234.640 129.889, 232.171 127.655 C 229.649 125.373, 224.712 125.555, 222.488 128.013 M 330 129.500 C 330 131.871, 330.462 133, 331.433 133 C 333.398 133, 334.436 129.231, 332.960 127.452 C 330.996 125.086, 330 125.775, 330 129.500 M 350.400 126.765 C 346.862 129.127, 345.822 137.637, 348.750 140.255 C 350.967 142.237, 352.809 142.597, 356.172 141.708 C 360.939 140.447, 362.365 131.507, 358.427 127.570 C 356.796 125.939, 352.311 125.489, 350.400 126.765 M 123.195 133.472 C 122.174 135.712, 122.268 136, 124.021 136 C 126.079 136, 126.554 134.421, 125.158 132.222 C 124.570 131.294, 124.031 131.637, 123.195 133.472 M 54.607 133.582 C 53.730 135.867, 53.802 136, 55.906 136 C 57.320 136, 57.678 135.483, 57.290 134 C 56.662 131.599, 55.441 131.408, 54.607 133.582" stroke="none" fill="#04649c" fill-rule="evenodd"/></svg>